STARTFONT 2.1
FONT -artwiz-fkp-medium-r-normal--16-160-75-75-m-80-ISO8859-1
SIZE 16 75 75
FONTBOUNDINGBOX 9 17 0 -3
STARTPROPERTIES 24
POINT_SIZE 160
WEIGHT 10
RESOLUTION 99
RESOLUTION_X 75
RESOLUTION_Y 75
X_HEIGHT 10
QUAD_WIDTH 8
DEFAULT_CHAR 63
FONT_ASCENT 12
FONT_DESCENT 4
FOUNDRY "artwiz"
FAMILY_NAME "fkp"
WEIGHT_NAME "medium"
SLANT "r"
SETWIDTH_NAME "normal"
ADD_STYLE_NAME ""
PIXEL_SIZE 16
SPACING "m"
AVERAGE_WIDTH 80
CHARSET_REGISTRY "ISO8859"
CHARSET_ENCODING "1"
COPYRIGHT "artwiz, fixed by aleczapka, latin1 chars by Sergio Martins"
_XMBDFED_INFO "Edited with xmbdfed 4.7."
_GBDFED_INFO "Edited with gbdfed 1.0."
ENDPROPERTIES
CHARS 209
STARTCHAR char0
ENCODING 0
SWIDTH 540 0
DWIDTH 9 0
BBX 7 12 1 1
BITMAP
FE
FE
FE
FE
FE
FE
FE
FE
FE
FE
FE
FE
ENDCHAR
STARTCHAR char1
ENCODING 1
SWIDTH 540 0
DWIDTH 9 0
BBX 5 5 1 3
BITMAP
20
70
F8
70
20
ENDCHAR
STARTCHAR char2
ENCODING 2
SWIDTH 540 0
DWIDTH 9 0
BBX 7 13 1 0
BITMAP
AA
54
AA
54
AA
54
AA
54
AA
54
AA
54
AA
ENDCHAR
STARTCHAR char9
ENCODING 9
SWIDTH 540 0
DWIDTH 9 0
BBX 0 0 0 0
BITMAP
ENDCHAR
STARTCHAR char10
ENCODING 10
SWIDTH 540 0
DWIDTH 9 0
BBX 0 0 0 0
BITMAP
ENDCHAR
STARTCHAR char11
ENCODING 11
SWIDTH 540 0
DWIDTH 9 0
BBX 5 9 0 5
BITMAP
08
08
08
08
08
08
08
08
F8
ENDCHAR
STARTCHAR char11
ENCODING 12
SWIDTH 540 0
DWIDTH 9 0
BBX 5 8 0 -2
BITMAP
F8
08
08
08
08
08
08
08
ENDCHAR
STARTCHAR char11
ENCODING 13
SWIDTH 540 0
DWIDTH 9 0
BBX 5 9 4 -3
BITMAP
F8
80
80
80
80
80
80
80
80
ENDCHAR
STARTCHAR char11
ENCODING 14
SWIDTH 540 0
DWIDTH 9 0
BBX 5 9 4 5
BITMAP
80
80
80
80
80
80
80
80
F8
ENDCHAR
STARTCHAR char15
ENCODING 15
SWIDTH 540 0
DWIDTH 9 0
BBX 9 16 0 -2
BITMAP
0800
0800
0800
0800
0800
0800
0800
0800
FF80
0800
0800
0800
0800
0800
0800
0800
ENDCHAR
STARTCHAR char16
ENCODING 16
SWIDTH 540 0
DWIDTH 9 0
BBX 9 1 0 10
BITMAP
FF80
ENDCHAR
STARTCHAR char17
ENCODING 17
SWIDTH 540 0
DWIDTH 9 0
BBX 9 1 0 8
BITMAP
FF80
ENDCHAR
STARTCHAR char18
ENCODING 18
SWIDTH 540 0
DWIDTH 9 0
BBX 9 1 0 5
BITMAP
FF80
ENDCHAR
STARTCHAR char19
ENCODING 19
SWIDTH 540 0
DWIDTH 9 0
BBX 9 1 0 3
BITMAP
FF80
ENDCHAR
STARTCHAR char20
ENCODING 20
SWIDTH 540 0
DWIDTH 9 0
BBX 9 1 0 0
BITMAP
FF80
ENDCHAR
STARTCHAR char21
ENCODING 21
SWIDTH 540 0
DWIDTH 9 0
BBX 5 17 4 -3
BITMAP
80
80
80
80
80
80
80
80
F8
80
80
80
80
80
80
80
80
ENDCHAR
STARTCHAR char22
ENCODING 22
SWIDTH 540 0
DWIDTH 9 0
BBX 5 16 0 -2
BITMAP
08
08
08
08
08
08
08
08
F8
08
08
08
08
08
08
08
ENDCHAR
STARTCHAR char23
ENCODING 23
SWIDTH 540 0
DWIDTH 9 0
BBX 9 9 0 5
BITMAP
0800
0800
0800
0800
0800
0800
0800
0800
FF80
ENDCHAR
STARTCHAR char24
ENCODING 24
SWIDTH 540 0
DWIDTH 9 0
BBX 9 6 0 0
BITMAP
FF80
0800
0800
0800
0800
0800
ENDCHAR
STARTCHAR char25
ENCODING 25
SWIDTH 540 0
DWIDTH 9 0
BBX 1 17 4 -3
BITMAP
80
80
80
80
80
80
80
80
80
80
80
80
80
80
80
80
80
ENDCHAR
STARTCHAR char32
ENCODING 32
SWIDTH 540 0
DWIDTH 9 0
BBX 0 0 0 0
BITMAP
ENDCHAR
STARTCHAR char33
ENCODING 33
SWIDTH 540 0
DWIDTH 9 0
BBX 4 10 2 0
BITMAP
60
F0
F0
F0
F0
60
60
00
60
60
ENDCHAR
STARTCHAR char34
ENCODING 34
SWIDTH 540 0
DWIDTH 9 0
BBX 6 3 1 7
BITMAP
FC
D8
B0
ENDCHAR
STARTCHAR char35
ENCODING 35
SWIDTH 540 0
DWIDTH 9 0
BBX 7 9 0 0
BITMAP
6C
FE
6C
6C
6C
6C
FE
6C
6C
ENDCHAR
STARTCHAR char36
ENCODING 36
SWIDTH 540 0
DWIDTH 9 0
BBX 7 12 0 -1
BITMAP
10
7C
D6
D0
70
38
1C
16
16
D6
7C
10
ENDCHAR
STARTCHAR char37
ENCODING 37
SWIDTH 540 0
DWIDTH 9 0
BBX 7 8 0 0
BITMAP
DA
76
0C
18
30
6E
DA
0E
ENDCHAR
STARTCHAR char38
ENCODING 38
SWIDTH 540 0
DWIDTH 9 0
BBX 7 10 0 0
BITMAP
38
6C
6C
38
70
D8
CE
CC
DC
76
ENDCHAR
STARTCHAR char39
ENCODING 39
SWIDTH 540 0
DWIDTH 9 0
BBX 2 3 2 7
BITMAP
40
40
C0
ENDCHAR
STARTCHAR char40
ENCODING 40
SWIDTH 540 0
DWIDTH 9 0
BBX 4 10 2 0
BITMAP
30
60
60
C0
C0
C0
C0
60
60
30
ENDCHAR
STARTCHAR char41
ENCODING 41
SWIDTH 540 0
DWIDTH 9 0
BBX 4 10 2 0
BITMAP
C0
60
60
30
30
30
30
60
60
C0
ENDCHAR
STARTCHAR char42
ENCODING 42
SWIDTH 540 0
DWIDTH 9 0
BBX 7 5 0 2
BITMAP
18
FE
38
38
6C
ENDCHAR
STARTCHAR char43
ENCODING 43
SWIDTH 540 0
DWIDTH 9 0
BBX 6 5 1 2
BITMAP
30
30
FC
30
30
ENDCHAR
STARTCHAR char44
ENCODING 44
SWIDTH 540 0
DWIDTH 9 0
BBX 3 3 2 -1
BITMAP
60
60
C0
ENDCHAR
STARTCHAR char45
ENCODING 45
SWIDTH 540 0
DWIDTH 9 0
BBX 6 1 1 4
BITMAP
FC
ENDCHAR
STARTCHAR char46
ENCODING 46
SWIDTH 540 0
DWIDTH 9 0
BBX 2 2 3 0
BITMAP
C0
C0
ENDCHAR
STARTCHAR char47
ENCODING 47
SWIDTH 540 0
DWIDTH 9 0
BBX 5 8 1 0
BITMAP
18
10
30
20
60
40
C0
80
ENDCHAR
STARTCHAR char48
ENCODING 48
SWIDTH 540 0
DWIDTH 9 0
BBX 7 10 0 0
BITMAP
3C
66
C6
C6
D6
D6
C6
C6
CC
78
ENDCHAR
STARTCHAR char49
ENCODING 49
SWIDTH 540 0
DWIDTH 9 0
BBX 4 10 1 0
BITMAP
30
70
F0
30
30
30
30
30
30
30
ENDCHAR
STARTCHAR char50
ENCODING 50
SWIDTH 540 0
DWIDTH 9 0
BBX 7 10 0 0
BITMAP
7C
C6
06
06
0C
18
30
60
C0
FE
ENDCHAR
STARTCHAR char51
ENCODING 51
SWIDTH 540 0
DWIDTH 9 0
BBX 7 10 0 0
BITMAP
7C
C6
06
06
1C
06
06
06
CC
78
ENDCHAR
STARTCHAR char52
ENCODING 52
SWIDTH 540 0
DWIDTH 9 0
BBX 7 10 0 0
BITMAP
0C
1C
3C
6C
CC
CC
FE
0C
0C
0C
ENDCHAR
STARTCHAR char53
ENCODING 53
SWIDTH 540 0
DWIDTH 9 0
BBX 7 10 0 0
BITMAP
FE
C0
C0
FC
06
06
06
06
CC
78
ENDCHAR
STARTCHAR char54
ENCODING 54
SWIDTH 540 0
DWIDTH 9 0
BBX 7 10 0 0
BITMAP
3C
60
C0
C0
FC
C6
C6
C6
CC
78
ENDCHAR
STARTCHAR char55
ENCODING 55
SWIDTH 540 0
DWIDTH 9 0
BBX 7 10 0 0
BITMAP
FE
06
0C
0C
18
18
30
30
30
30
ENDCHAR
STARTCHAR char56
ENCODING 56
SWIDTH 540 0
DWIDTH 9 0
BBX 7 10 0 0
BITMAP
3C
66
C6
C6
7C
C6
C6
C6
CC
78
ENDCHAR
STARTCHAR char57
ENCODING 57
SWIDTH 540 0
DWIDTH 9 0
BBX 7 10 0 0
BITMAP
3C
66
C6
C6
C6
7E
06
06
0C
78
ENDCHAR
STARTCHAR char58
ENCODING 58
SWIDTH 540 0
DWIDTH 9 0
BBX 2 7 3 1
BITMAP
C0
C0
00
00
00
C0
C0
ENDCHAR
STARTCHAR char59
ENCODING 59
SWIDTH 540 0
DWIDTH 9 0
BBX 3 8 2 0
BITMAP
60
60
00
00
00
60
60
C0
ENDCHAR
STARTCHAR char60
ENCODING 60
SWIDTH 540 0
DWIDTH 9 0
BBX 6 9 1 0
BITMAP
0C
18
30
60
C0
60
30
18
0C
ENDCHAR
STARTCHAR char61
ENCODING 61
SWIDTH 540 0
DWIDTH 9 0
BBX 6 4 1 3
BITMAP
FC
00
00
FC
ENDCHAR
STARTCHAR char62
ENCODING 62
SWIDTH 540 0
DWIDTH 9 0
BBX 6 9 1 0
BITMAP
C0
60
30
18
0C
18
30
60
C0
ENDCHAR
STARTCHAR char63
ENCODING 63
SWIDTH 540 0
DWIDTH 9 0
BBX 7 10 0 0
BITMAP
7C
C6
06
06
0C
18
18
00
18
18
ENDCHAR
STARTCHAR char64
ENCODING 64
SWIDTH 540 0
DWIDTH 9 0
BBX 7 9 0 0
BITMAP
66
CE
DE
DE
DE
DE
CC
60
3C
ENDCHAR
STARTCHAR char65
ENCODING 65
SWIDTH 540 0
DWIDTH 9 0
BBX 7 10 0 0
BITMAP
3C
66
C6
C6
C6
C6
FE
C6
C6
C6
ENDCHAR
STARTCHAR char66
ENCODING 66
SWIDTH 540 0
DWIDTH 9 0
BBX 7 10 0 0
BITMAP
F8
CC
CC
CC
FC
C6
C6
C6
CC
F8
ENDCHAR
STARTCHAR char67
ENCODING 67
SWIDTH 540 0
DWIDTH 9 0
BBX 7 10 0 0
BITMAP
3C
66
C0
C0
C0
C0
C0
C0
C6
7C
ENDCHAR
STARTCHAR char68
ENCODING 68
SWIDTH 540 0
DWIDTH 9 0
BBX 7 10 0 0
BITMAP
FC
C6
C6
C6
C6
C6
C6
C6
CC
F8
ENDCHAR
STARTCHAR char69
ENCODING 69
SWIDTH 540 0
DWIDTH 9 0
BBX 6 10 0 0
BITMAP
FC
C0
C0
C0
FC
C0
C0
C0
C0
FC
ENDCHAR
STARTCHAR char70
ENCODING 70
SWIDTH 540 0
DWIDTH 9 0
BBX 6 10 0 0
BITMAP
FC
C0
C0
C0
FC
C0
C0
C0
C0
C0
ENDCHAR
STARTCHAR char71
ENCODING 71
SWIDTH 540 0
DWIDTH 9 0
BBX 7 10 0 0
BITMAP
3C
66
C0
C0
C0
DE
C6
C6
CC
78
ENDCHAR
STARTCHAR char72
ENCODING 72
SWIDTH 540 0
DWIDTH 9 0
BBX 7 10 0 0
BITMAP
C6
C6
C6
C6
FE
C6
C6
C6
C6
C6
ENDCHAR
STARTCHAR char73
ENCODING 73
SWIDTH 540 0
DWIDTH 9 0
BBX 2 10 3 0
BITMAP
C0
C0
C0
C0
C0
C0
C0
C0
C0
C0
ENDCHAR
STARTCHAR char74
ENCODING 74
SWIDTH 540 0
DWIDTH 9 0
BBX 7 10 0 0
BITMAP
06
06
06
06
06
06
C6
C6
CC
78
ENDCHAR
STARTCHAR char75
ENCODING 75
SWIDTH 540 0
DWIDTH 9 0
BBX 7 10 0 0
BITMAP
C6
CC
D8
F0
E0
E0
F0
D8
CC
C6
ENDCHAR
STARTCHAR char76
ENCODING 76
SWIDTH 540 0
DWIDTH 9 0
BBX 7 10 0 0
BITMAP
C0
C0
C0
C0
C0
C0
C0
C0
C0
FE
ENDCHAR
STARTCHAR char77
ENCODING 77
SWIDTH 540 0
DWIDTH 9 0
BBX 7 10 0 0
BITMAP
82
C6
EE
FE
D6
D6
C6
C6
C6
C6
ENDCHAR
STARTCHAR char78
ENCODING 78
SWIDTH 540 0
DWIDTH 9 0
BBX 7 10 0 0
BITMAP
86
C6
E6
F6
FE
DE
CE
C6
C6
C6
ENDCHAR
STARTCHAR char79
ENCODING 79
SWIDTH 540 0
DWIDTH 9 0
BBX 7 10 0 0
BITMAP
3C
66
C6
C6
C6
C6
C6
C6
CC
78
ENDCHAR
STARTCHAR char80
ENCODING 80
SWIDTH 540 0
DWIDTH 9 0
BBX 7 10 0 0
BITMAP
FC
C6
C6
C6
CC
F8
C0
C0
C0
C0
ENDCHAR
STARTCHAR char81
ENCODING 81
SWIDTH 540 0
DWIDTH 9 0
BBX 7 12 0 -2
BITMAP
3C
66
C6
C6
C6
C6
C6
F6
DC
78
0C
06
ENDCHAR
STARTCHAR char82
ENCODING 82
SWIDTH 540 0
DWIDTH 9 0
BBX 7 10 0 0
BITMAP
FC
C6
C6
C6
CC
F8
CC
CC
C6
C6
ENDCHAR
STARTCHAR char83
ENCODING 83
SWIDTH 540 0
DWIDTH 9 0
BBX 7 10 0 0
BITMAP
3C
66
C0
C0
7C
06
06
06
CC
78
ENDCHAR
STARTCHAR char84
ENCODING 84
SWIDTH 540 0
DWIDTH 9 0
BBX 6 10 1 0
BITMAP
FC
30
30
30
30
30
30
30
30
30
ENDCHAR
STARTCHAR char85
ENCODING 85
SWIDTH 540 0
DWIDTH 9 0
BBX 7 10 0 0
BITMAP
C6
C6
C6
C6
C6
C6
C6
C6
CC
78
ENDCHAR
STARTCHAR char86
ENCODING 86
SWIDTH 540 0
DWIDTH 9 0
BBX 7 10 0 0
BITMAP
C6
C6
C6
C6
C6
C6
C6
6C
38
10
ENDCHAR
STARTCHAR char87
ENCODING 87
SWIDTH 540 0
DWIDTH 9 0
BBX 7 10 0 0
BITMAP
C6
C6
C6
C6
C6
D6
D6
FE
EE
C6
ENDCHAR
STARTCHAR char88
ENCODING 88
SWIDTH 540 0
DWIDTH 9 0
BBX 7 10 0 0
BITMAP
C6
C6
6C
6C
38
38
6C
6C
C6
C6
ENDCHAR
STARTCHAR char89
ENCODING 89
SWIDTH 540 0
DWIDTH 9 0
BBX 6 10 1 0
BITMAP
8C
8C
D8
D8
70
30
60
60
C0
C0
ENDCHAR
STARTCHAR char90
ENCODING 90
SWIDTH 540 0
DWIDTH 9 0
BBX 7 10 0 0
BITMAP
FE
06
06
0C
18
30
60
C0
C0
FE
ENDCHAR
STARTCHAR char91
ENCODING 91
SWIDTH 540 0
DWIDTH 9 0
BBX 2 10 2 0
BITMAP
C0
C0
C0
C0
C0
C0
C0
C0
C0
C0
ENDCHAR
STARTCHAR char92
ENCODING 92
SWIDTH 540 0
DWIDTH 9 0
BBX 5 9 1 0
BITMAP
80
C0
40
60
20
30
10
18
08
ENDCHAR
STARTCHAR char93
ENCODING 93
SWIDTH 540 0
DWIDTH 9 0
BBX 2 10 4 0
BITMAP
C0
C0
C0
C0
C0
C0
C0
C0
C0
C0
ENDCHAR
STARTCHAR char94
ENCODING 94
SWIDTH 540 0
DWIDTH 9 0
BBX 5 3 1 8
BITMAP
20
70
D8
ENDCHAR
STARTCHAR char175
ENCODING 95
SWIDTH 540 0
DWIDTH 9 0
BBX 6 2 2 -1
BITMAP
FC
FC
ENDCHAR
STARTCHAR char96
ENCODING 96
SWIDTH 540 0
DWIDTH 9 0
BBX 2 3 2 7
BITMAP
C0
C0
C0
ENDCHAR
STARTCHAR char97
ENCODING 97
SWIDTH 540 0
DWIDTH 9 0
BBX 7 7 0 0
BITMAP
3C
06
3E
66
C6
C6
7E
ENDCHAR
STARTCHAR char98
ENCODING 98
SWIDTH 540 0
DWIDTH 9 0
BBX 7 10 0 0
BITMAP
C0
C0
C0
FC
C6
C6
C6
C6
CC
F8
ENDCHAR
STARTCHAR char99
ENCODING 99
SWIDTH 540 0
DWIDTH 9 0
BBX 7 7 0 0
BITMAP
3C
66
C0
C0
C0
C6
7C
ENDCHAR
STARTCHAR char100
ENCODING 100
SWIDTH 540 0
DWIDTH 9 0
BBX 7 10 0 0
BITMAP
06
06
06
3E
66
C6
C6
C6
C6
7E
ENDCHAR
STARTCHAR char101
ENCODING 101
SWIDTH 540 0
DWIDTH 9 0
BBX 7 7 0 0
BITMAP
3C
66
C6
CC
F8
C0
7C
ENDCHAR
STARTCHAR char102
ENCODING 102
SWIDTH 540 0
DWIDTH 9 0
BBX 6 10 0 0
BITMAP
3C
64
64
60
F0
60
60
60
60
60
ENDCHAR
STARTCHAR char103
ENCODING 103
SWIDTH 540 0
DWIDTH 9 0
BBX 7 10 0 -3
BITMAP
3E
66
C6
C6
C6
7E
06
06
0C
78
ENDCHAR
STARTCHAR char104
ENCODING 104
SWIDTH 540 0
DWIDTH 9 0
BBX 7 10 0 0
BITMAP
C0
C0
C0
FC
C6
C6
C6
C6
C6
C6
ENDCHAR
STARTCHAR char105
ENCODING 105
SWIDTH 540 0
DWIDTH 9 0
BBX 2 10 3 0
BITMAP
C0
C0
00
C0
C0
C0
C0
C0
C0
C0
ENDCHAR
STARTCHAR char106
ENCODING 106
SWIDTH 540 0
DWIDTH 9 0
BBX 6 13 1 -3
BITMAP
0C
0C
00
0C
0C
0C
0C
0C
0C
0C
0C
98
F0
ENDCHAR
STARTCHAR char107
ENCODING 107
SWIDTH 540 0
DWIDTH 9 0
BBX 7 10 0 0
BITMAP
C0
C0
C0
CC
D8
F0
F0
F8
CC
C6
ENDCHAR
STARTCHAR char108
ENCODING 108
SWIDTH 540 0
DWIDTH 9 0
BBX 3 10 2 0
BITMAP
E0
60
60
60
60
60
60
60
60
60
ENDCHAR
STARTCHAR char109
ENCODING 109
SWIDTH 540 0
DWIDTH 9 0
BBX 7 7 0 0
BITMAP
FC
D6
D6
D6
C6
C6
C6
ENDCHAR
STARTCHAR char110
ENCODING 110
SWIDTH 540 0
DWIDTH 9 0
BBX 7 7 0 0
BITMAP
FC
C6
C6
C6
C6
C6
C6
ENDCHAR
STARTCHAR char111
ENCODING 111
SWIDTH 540 0
DWIDTH 9 0
BBX 7 7 0 0
BITMAP
3C
66
C6
C6
C6
CC
78
ENDCHAR
STARTCHAR char112
ENCODING 112
SWIDTH 540 0
DWIDTH 9 0
BBX 7 10 0 -3
BITMAP
FC
C6
C6
C6
CC
F8
C0
C0
C0
C0
ENDCHAR
STARTCHAR char113
ENCODING 113
SWIDTH 540 0
DWIDTH 9 0
BBX 7 10 0 -3
BITMAP
3E
66
C6
C6
C6
7E
06
06
06
06
ENDCHAR
STARTCHAR char114
ENCODING 114
SWIDTH 540 0
DWIDTH 9 0
BBX 7 7 0 0
BITMAP
FC
C6
C0
C0
C0
C0
C0
ENDCHAR
STARTCHAR char115
ENCODING 115
SWIDTH 540 0
DWIDTH 9 0
BBX 7 7 0 0
BITMAP
3C
66
C0
7C
06
CC
78
ENDCHAR
STARTCHAR char116
ENCODING 116
SWIDTH 540 0
DWIDTH 9 0
BBX 6 10 1 0
BITMAP
10
30
30
FC
30
30
30
30
30
1C
ENDCHAR
STARTCHAR char117
ENCODING 117
SWIDTH 540 0
DWIDTH 9 0
BBX 7 7 0 0
BITMAP
C6
C6
C6
C6
C6
CC
78
ENDCHAR
STARTCHAR char118
ENCODING 118
SWIDTH 540 0
DWIDTH 9 0
BBX 6 7 1 0
BITMAP
8C
8C
8C
8C
D8
70
20
ENDCHAR
STARTCHAR char119
ENCODING 119
SWIDTH 540 0
DWIDTH 9 0
BBX 7 7 0 0
BITMAP
C6
C6
C6
D6
D6
FE
C6
ENDCHAR
STARTCHAR char120
ENCODING 120
SWIDTH 540 0
DWIDTH 9 0
BBX 7 7 0 0
BITMAP
C6
6C
38
10
38
6C
C6
ENDCHAR
STARTCHAR char121
ENCODING 121
SWIDTH 540 0
DWIDTH 9 0
BBX 7 10 0 -3
BITMAP
C6
C6
C6
C6
C6
7E
06
06
0C
78
ENDCHAR
STARTCHAR char122
ENCODING 122
SWIDTH 540 0
DWIDTH 9 0
BBX 7 7 0 0
BITMAP
FE
0C
18
30
60
C0
FE
ENDCHAR
STARTCHAR char123
ENCODING 123
SWIDTH 540 0
DWIDTH 9 0
BBX 6 10 1 0
BITMAP
1C
30
30
30
30
E0
30
30
30
30
ENDCHAR
STARTCHAR char124
ENCODING 124
SWIDTH 540 0
DWIDTH 9 0
BBX 2 10 3 0
BITMAP
C0
C0
C0
C0
C0
00
C0
C0
C0
C0
ENDCHAR
STARTCHAR char125
ENCODING 125
SWIDTH 540 0
DWIDTH 9 0
BBX 6 10 1 0
BITMAP
E0
30
30
30
30
1C
30
30
30
30
ENDCHAR
STARTCHAR char126
ENCODING 126
SWIDTH 540 0
DWIDTH 9 0
BBX 6 2 1 3
BITMAP
6C
D8
ENDCHAR
STARTCHAR char173
ENCODING 161
SWIDTH 540 0
DWIDTH 9 0
BBX 4 10 2 0
BITMAP
60
60
00
60
60
F0
F0
F0
F0
60
ENDCHAR
STARTCHAR char155
ENCODING 162
SWIDTH 540 0
DWIDTH 9 0
BBX 6 9 1 0
BITMAP
20
20
78
EC
A0
A0
A0
AC
F8
ENDCHAR
STARTCHAR char156
ENCODING 163
SWIDTH 540 0
DWIDTH 9 0
BBX 7 10 0 0
BITMAP
1E
32
30
30
78
30
30
30
F0
DE
ENDCHAR
STARTCHAR char164
ENCODING 164
SWIDTH 540 0
DWIDTH 9 0
BBX 6 7 1 2
BITMAP
84
CC
78
48
78
CC
84
ENDCHAR
STARTCHAR char157
ENCODING 165
SWIDTH 540 0
DWIDTH 9 0
BBX 6 9 1 0
BITMAP
CC
CC
78
30
FC
30
78
30
30
ENDCHAR
STARTCHAR char166
ENCODING 166
SWIDTH 540 0
DWIDTH 9 0
BBX 2 8 2 0
BITMAP
C0
C0
C0
00
00
C0
C0
C0
ENDCHAR
STARTCHAR char21
ENCODING 167
SWIDTH 540 0
DWIDTH 9 0
BBX 7 11 0 0
BITMAP
1E
30
78
DC
CE
E6
72
3A
1E
0C
78
ENDCHAR
STARTCHAR char168
ENCODING 168
SWIDTH 540 0
DWIDTH 9 0
BBX 5 1 1 10
BITMAP
D8
ENDCHAR
STARTCHAR char99
ENCODING 169
SWIDTH 540 0
DWIDTH 9 0
BBX 9 8 0 0
BITMAP
7F00
C180
DD80
D180
D180
DD80
C180
7F00
ENDCHAR
STARTCHAR char166
ENCODING 170
SWIDTH 540 0
DWIDTH 9 0
BBX 5 5 1 5
BITMAP
70
18
78
D8
98
ENDCHAR
STARTCHAR char174
ENCODING 171
SWIDTH 540 0
DWIDTH 9 0
BBX 7 5 0 2
BITMAP
36
6C
D8
6C
36
ENDCHAR
STARTCHAR char170
ENCODING 172
SWIDTH 540 0
DWIDTH 9 0
BBX 6 4 0 2
BITMAP
FC
0C
0C
0C
ENDCHAR
STARTCHAR char99
ENCODING 174
SWIDTH 540 0
DWIDTH 9 0
BBX 9 8 0 0
BITMAP
7F00
C180
D980
D580
D980
D580
C180
7F00
ENDCHAR
STARTCHAR char175
ENCODING 175
SWIDTH 540 0
DWIDTH 9 0
BBX 4 2 2 5
BITMAP
F0
F0
ENDCHAR
STARTCHAR char176
ENCODING 176
SWIDTH 540 0
DWIDTH 9 0
BBX 5 4 0 5
BITMAP
F8
D8
D8
F8
ENDCHAR
STARTCHAR char241
ENCODING 177
SWIDTH 540 0
DWIDTH 9 0
BBX 6 7 1 1
BITMAP
30
30
FC
30
30
00
FC
ENDCHAR
STARTCHAR char180
ENCODING 178
SWIDTH 540 0
DWIDTH 9 0
BBX 5 5 0 6
BITMAP
70
D8
30
60
F8
ENDCHAR
STARTCHAR char180
ENCODING 179
SWIDTH 540 0
DWIDTH 9 0
BBX 4 7 0 4
BITMAP
E0
F0
10
60
10
F0
E0
ENDCHAR
STARTCHAR char180
ENCODING 180
SWIDTH 540 0
DWIDTH 9 0
BBX 3 3 2 8
BITMAP
60
C0
80
ENDCHAR
STARTCHAR char230
ENCODING 181
SWIDTH 540 0
DWIDTH 9 0
BBX 6 8 1 -1
BITMAP
CC
CC
CC
CC
D8
F0
C0
C0
ENDCHAR
STARTCHAR char20
ENCODING 182
SWIDTH 540 0
DWIDTH 9 0
BBX 8 10 0 0
BITMAP
7F
DB
DB
DB
7B
3B
1F
1B
1B
1B
ENDCHAR
STARTCHAR char183
ENCODING 183
SWIDTH 540 0
DWIDTH 9 0
BBX 2 2 2 3
BITMAP
C0
C0
ENDCHAR
STARTCHAR char184
ENCODING 184
SWIDTH 540 0
DWIDTH 9 0
BBX 3 4 2 0
BITMAP
C0
60
E0
E0
ENDCHAR
STARTCHAR char185
ENCODING 185
SWIDTH 540 0
DWIDTH 9 0
BBX 3 5 0 6
BITMAP
60
E0
60
60
60
ENDCHAR
STARTCHAR char167
ENCODING 186
SWIDTH 540 0
DWIDTH 9 0
BBX 5 5 1 5
BITMAP
70
D8
98
98
98
ENDCHAR
STARTCHAR char175
ENCODING 187
SWIDTH 540 0
DWIDTH 9 0
BBX 7 5 0 2
BITMAP
D8
6C
36
6C
D8
ENDCHAR
STARTCHAR char172
ENCODING 188
SWIDTH 540 0
DWIDTH 9 0
BBX 7 13 0 -2
BITMAP
60
E0
62
66
6C
18
30
66
CE
96
3E
06
06
ENDCHAR
STARTCHAR char171
ENCODING 189
SWIDTH 540 0
DWIDTH 9 0
BBX 8 12 0 -1
BITMAP
60
E0
62
66
6C
18
30
6E
DB
86
0C
0F
ENDCHAR
STARTCHAR char171
ENCODING 190
SWIDTH 540 0
DWIDTH 9 0
BBX 9 14 0 -2
BITMAP
E000
F000
1000
6000
1100
F300
E600
0C00
1980
3380
6580
4F80
0180
0180
ENDCHAR
STARTCHAR char168
ENCODING 191
SWIDTH 540 0
DWIDTH 9 0
BBX 7 10 0 0
BITMAP
18
18
00
18
18
70
C0
C0
C6
7C
ENDCHAR
STARTCHAR char196
ENCODING 192
SWIDTH 540 0
DWIDTH 9 0
BBX 7 12 0 0
BITMAP
30
18
08
3C
66
C6
C6
C6
C6
FE
C6
C6
ENDCHAR
STARTCHAR char196
ENCODING 193
SWIDTH 540 0
DWIDTH 9 0
BBX 7 12 0 0
BITMAP
06
0C
08
3C
66
C6
C6
C6
C6
FE
C6
C6
ENDCHAR
STARTCHAR char196
ENCODING 194
SWIDTH 540 0
DWIDTH 9 0
BBX 7 12 0 0
BITMAP
08
1C
26
00
3C
66
C6
C6
C6
FE
C6
C6
ENDCHAR
STARTCHAR char196
ENCODING 195
SWIDTH 540 0
DWIDTH 9 0
BBX 7 12 0 0
BITMAP
36
6C
00
3C
66
C6
C6
C6
C6
FE
C6
C6
ENDCHAR
STARTCHAR char196
ENCODING 196
SWIDTH 540 0
DWIDTH 9 0
BBX 7 12 0 0
BITMAP
66
00
3C
66
C6
C6
C6
C6
FE
C6
C6
C6
ENDCHAR
STARTCHAR char143
ENCODING 197
SWIDTH 540 0
DWIDTH 9 0
BBX 7 12 0 0
BITMAP
38
6C
6C
38
6C
C6
C6
C6
FE
C6
C6
C6
ENDCHAR
STARTCHAR char146
ENCODING 198
SWIDTH 540 0
DWIDTH 9 0
BBX 7 10 0 0
BITMAP
3E
38
38
78
5E
58
F8
D8
D8
DE
ENDCHAR
STARTCHAR char128
ENCODING 199
SWIDTH 540 0
DWIDTH 9 0
BBX 7 11 0 -1
BITMAP
3C
66
C0
C0
C0
C0
C0
C6
7C
18
70
ENDCHAR
STARTCHAR char69
ENCODING 200
SWIDTH 540 0
DWIDTH 9 0
BBX 6 12 0 0
BITMAP
40
60
30
FC
C0
C0
C0
FC
C0
C0
C0
FC
ENDCHAR
STARTCHAR char69
ENCODING 201
SWIDTH 540 0
DWIDTH 9 0
BBX 6 12 0 0
BITMAP
08
18
30
FC
C0
C0
C0
FC
C0
C0
C0
FC
ENDCHAR
STARTCHAR char69
ENCODING 202
SWIDTH 540 0
DWIDTH 9 0
BBX 6 12 0 0
BITMAP
10
38
4C
00
FC
C0
C0
FC
C0
C0
C0
FC
ENDCHAR
STARTCHAR char69
ENCODING 203
SWIDTH 540 0
DWIDTH 9 0
BBX 6 12 0 0
BITMAP
6C
00
FC
C0
C0
C0
FC
C0
C0
C0
C0
FC
ENDCHAR
STARTCHAR char141
ENCODING 204
SWIDTH 540 0
DWIDTH 9 0
BBX 4 12 1 0
BITMAP
C0
60
30
00
30
30
30
30
30
30
30
30
ENDCHAR
STARTCHAR char141
ENCODING 205
SWIDTH 540 0
DWIDTH 9 0
BBX 4 12 3 0
BITMAP
30
60
C0
00
C0
C0
C0
C0
C0
C0
C0
C0
ENDCHAR
STARTCHAR char73
ENCODING 206
SWIDTH 540 0
DWIDTH 9 0
BBX 6 12 1 0
BITMAP
30
58
8C
00
30
30
30
30
30
30
30
30
ENDCHAR
STARTCHAR char139
ENCODING 207
SWIDTH 540 0
DWIDTH 9 0
BBX 6 12 1 0
BITMAP
CC
CC
00
30
30
30
30
30
30
30
30
30
ENDCHAR
STARTCHAR char68
ENCODING 208
SWIDTH 540 0
DWIDTH 9 0
BBX 8 10 0 0
BITMAP
7E
63
63
63
F3
F3
63
63
66
7C
ENDCHAR
STARTCHAR char165
ENCODING 209
SWIDTH 540 0
DWIDTH 9 0
BBX 7 12 0 0
BITMAP
6C
D8
00
C6
E6
F6
FE
DE
CE
C6
C6
C6
ENDCHAR
STARTCHAR char214
ENCODING 210
SWIDTH 540 0
DWIDTH 9 0
BBX 7 12 0 0
BITMAP
20
30
18
3C
66
C6
C6
C6
C6
C6
CC
78
ENDCHAR
STARTCHAR char214
ENCODING 211
SWIDTH 540 0
DWIDTH 9 0
BBX 7 12 0 0
BITMAP
04
0C
18
3C
66
C6
C6
C6
C6
C6
CC
78
ENDCHAR
STARTCHAR char214
ENCODING 212
SWIDTH 540 0
DWIDTH 9 0
BBX 7 12 0 0
BITMAP
10
38
4C
00
3C
66
C6
C6
C6
C6
CC
78
ENDCHAR
STARTCHAR char214
ENCODING 213
SWIDTH 540 0
DWIDTH 9 0
BBX 7 12 0 0
BITMAP
36
6C
00
3C
66
C6
C6
C6
C6
C6
CC
78
ENDCHAR
STARTCHAR char214
ENCODING 214
SWIDTH 540 0
DWIDTH 9 0
BBX 7 12 0 0
BITMAP
66
00
3C
66
C6
C6
C6
C6
C6
C6
CC
78
ENDCHAR
STARTCHAR char215
ENCODING 215
SWIDTH 540 0
DWIDTH 9 0
BBX 5 4 1 2
BITMAP
D8
70
70
D8
ENDCHAR
STARTCHAR char237
ENCODING 216
SWIDTH 540 0
DWIDTH 9 0
BBX 8 10 0 0
BITMAP
03
06
7E
CF
DB
DB
F3
7E
60
C0
ENDCHAR
STARTCHAR char154
ENCODING 217
SWIDTH 540 0
DWIDTH 9 0
BBX 7 12 0 0
BITMAP
20
30
18
C6
C6
C6
C6
C6
C6
C6
CC
78
ENDCHAR
STARTCHAR char154
ENCODING 218
SWIDTH 540 0
DWIDTH 9 0
BBX 7 12 0 0
BITMAP
08
18
30
C6
C6
C6
C6
C6
C6
C6
CC
78
ENDCHAR
STARTCHAR char154
ENCODING 219
SWIDTH 540 0
DWIDTH 9 0
BBX 7 12 0 0
BITMAP
10
38
4C
00
C6
C6
C6
C6
C6
C6
CC
78
ENDCHAR
STARTCHAR char154
ENCODING 220
SWIDTH 540 0
DWIDTH 9 0
BBX 7 11 0 0
BITMAP
6C
00
C6
C6
C6
C6
C6
C6
C6
CC
78
ENDCHAR
STARTCHAR char89
ENCODING 221
SWIDTH 540 0
DWIDTH 9 0
BBX 6 12 1 0
BITMAP
18
30
20
8C
8C
D8
D8
70
30
60
60
C0
ENDCHAR
STARTCHAR char112
ENCODING 222
SWIDTH 540 0
DWIDTH 9 0
BBX 7 14 0 -3
BITMAP
C0
C0
C0
C0
C0
FC
C6
C6
CC
F8
C0
C0
C0
C0
ENDCHAR
STARTCHAR char225
ENCODING 223
SWIDTH 540 0
DWIDTH 9 0
BBX 7 9 0 0
BITMAP
3C
66
C6
CC
C6
C6
C6
CC
D8
ENDCHAR
STARTCHAR char133
ENCODING 224
SWIDTH 540 0
DWIDTH 9 0
BBX 7 11 0 0
BITMAP
20
10
18
00
3C
06
3E
66
C6
C6
7E
ENDCHAR
STARTCHAR char160
ENCODING 225
SWIDTH 540 0
DWIDTH 9 0
BBX 7 11 0 0
BITMAP
0C
18
10
00
3C
06
3E
66
C6
C6
7E
ENDCHAR
STARTCHAR char131
ENCODING 226
SWIDTH 540 0
DWIDTH 9 0
BBX 7 11 0 0
BITMAP
08
1C
26
00
3C
06
3E
66
C6
C6
7E
ENDCHAR
STARTCHAR char134
ENCODING 227
SWIDTH 540 0
DWIDTH 9 0
BBX 7 10 0 0
BITMAP
36
6C
00
3C
06
3E
66
C6
C6
7E
ENDCHAR
STARTCHAR char228
ENCODING 228
SWIDTH 540 0
DWIDTH 9 0
BBX 7 9 0 0
BITMAP
66
00
3C
06
3E
66
C6
C6
7E
ENDCHAR
STARTCHAR char229
ENCODING 229
SWIDTH 540 0
DWIDTH 9 0
BBX 7 9 0 0
BITMAP
18
00
3C
06
3E
66
C6
C6
7E
ENDCHAR
STARTCHAR char145
ENCODING 230
SWIDTH 540 0
DWIDTH 9 0
BBX 7 7 0 0
BITMAP
7E
1A
7A
DE
D8
D8
7E
ENDCHAR
STARTCHAR char135
ENCODING 231
SWIDTH 540 0
DWIDTH 9 0
BBX 6 8 1 -1
BITMAP
78
CC
80
80
8C
F8
30
E0
ENDCHAR
STARTCHAR char138
ENCODING 232
SWIDTH 540 0
DWIDTH 9 0
BBX 7 11 0 0
BITMAP
60
20
10
00
7C
C6
C6
CC
F8
C0
7C
ENDCHAR
STARTCHAR char138
ENCODING 233
SWIDTH 540 0
DWIDTH 9 0
BBX 7 11 0 0
BITMAP
0C
08
10
00
7C
C6
C6
CC
F8
C0
7C
ENDCHAR
STARTCHAR char136
ENCODING 234
SWIDTH 540 0
DWIDTH 9 0
BBX 7 11 0 0
BITMAP
10
38
4C
00
7C
C6
C6
CC
F8
C0
7C
ENDCHAR
STARTCHAR char137
ENCODING 235
SWIDTH 540 0
DWIDTH 9 0
BBX 7 9 0 0
BITMAP
6C
00
7C
C6
C6
CC
F8
C0
7C
ENDCHAR
STARTCHAR char141
ENCODING 236
SWIDTH 540 0
DWIDTH 9 0
BBX 4 11 1 0
BITMAP
C0
40
20
00
30
30
30
30
30
30
30
ENDCHAR
STARTCHAR char161
ENCODING 237
SWIDTH 540 0
DWIDTH 9 0
BBX 3 11 3 0
BITMAP
60
40
80
00
C0
C0
C0
C0
C0
C0
C0
ENDCHAR
STARTCHAR char140
ENCODING 238
SWIDTH 540 0
DWIDTH 9 0
BBX 6 11 1 0
BITMAP
30
78
8C
00
30
30
30
30
30
30
30
ENDCHAR
STARTCHAR char139
ENCODING 239
SWIDTH 540 0
DWIDTH 9 0
BBX 6 10 1 0
BITMAP
CC
CC
00
30
30
30
30
30
30
30
ENDCHAR
STARTCHAR char149
ENCODING 240
SWIDTH 540 0
DWIDTH 9 0
BBX 7 11 0 0
BITMAP
04
24
18
24
3C
66
C6
C6
C6
CC
78
ENDCHAR
STARTCHAR char164
ENCODING 241
SWIDTH 540 0
DWIDTH 9 0
BBX 7 10 0 0
BITMAP
6C
D8
00
FC
C6
C6
C6
C6
C6
C6
ENDCHAR
STARTCHAR char149
ENCODING 242
SWIDTH 540 0
DWIDTH 9 0
BBX 7 11 0 0
BITMAP
60
20
10
00
3C
66
C6
C6
C6
CC
78
ENDCHAR
STARTCHAR char162
ENCODING 243
SWIDTH 540 0
DWIDTH 9 0
BBX 7 11 0 0
BITMAP
0C
18
10
00
3C
66
C6
C6
C6
CC
78
ENDCHAR
STARTCHAR char147
ENCODING 244
SWIDTH 540 0
DWIDTH 9 0
BBX 7 11 0 0
BITMAP
10
38
4C
00
3C
66
C6
C6
C6
CC
78
ENDCHAR
STARTCHAR char148
ENCODING 245
SWIDTH 540 0
DWIDTH 9 0
BBX 7 10 0 0
BITMAP
36
6C
00
3C
66
C6
C6
C6
CC
78
ENDCHAR
STARTCHAR char246
ENCODING 246
SWIDTH 540 0
DWIDTH 9 0
BBX 7 9 0 0
BITMAP
66
00
3C
66
C6
C6
C6
CC
78
ENDCHAR
STARTCHAR char247
ENCODING 247
SWIDTH 540 0
DWIDTH 9 0
BBX 8 6 0 2
BITMAP
18
00
FF
FF
00
18
ENDCHAR
STARTCHAR char237
ENCODING 248
SWIDTH 540 0
DWIDTH 9 0
BBX 8 9 0 0
BITMAP
03
06
7E
CF
DB
F3
7E
60
C0
ENDCHAR
STARTCHAR char151
ENCODING 249
SWIDTH 540 0
DWIDTH 9 0
BBX 7 11 0 0
BITMAP
60
20
10
00
C6
C6
C6
C6
C6
CC
78
ENDCHAR
STARTCHAR char163
ENCODING 250
SWIDTH 540 0
DWIDTH 9 0
BBX 7 11 0 0
BITMAP
18
10
20
00
C6
C6
C6
C6
C6
CC
78
ENDCHAR
STARTCHAR char150
ENCODING 251
SWIDTH 540 0
DWIDTH 9 0
BBX 7 11 0 0
BITMAP
10
38
4C
00
C6
C6
C6
C6
C6
CC
78
ENDCHAR
STARTCHAR char129
ENCODING 252
SWIDTH 540 0
DWIDTH 9 0
BBX 7 10 0 0
BITMAP
6C
6C
00
C6
C6
C6
C6
C6
CC
78
ENDCHAR
STARTCHAR char152
ENCODING 253
SWIDTH 540 0
DWIDTH 9 0
BBX 7 14 0 -3
BITMAP
0C
08
10
00
C6
C6
C6
C6
C6
7E
06
06
0C
78
ENDCHAR
STARTCHAR char112
ENCODING 254
SWIDTH 540 0
DWIDTH 9 0
BBX 7 14 0 -3
BITMAP
C0
C0
C0
C0
FC
C6
C6
C6
CC
F8
C0
C0
C0
C0
ENDCHAR
STARTCHAR char152
ENCODING 255
SWIDTH 540 0
DWIDTH 9 0
BBX 7 13 0 -3
BITMAP
6C
6C
00
C6
C6
C6
C6
C6
7E
06
06
0C
78
ENDCHAR
ENDFONT
